<?xml version="1.0" ?><svg id="Icons" style="enable-background:new 0 0 32 32;" version="1.1" viewBox="0 0 32 32" xml:space="preserve" xmlns="http://www.w3.org/2000/svg" xmlns:xlink="http://www.w3.org/1999/xlink"><g><path d="M6.6,19.8c-0.3,0-0.5-0.1-0.7-0.3l-3.7-3.7c-0.2-0.2-0.3-0.4-0.3-0.7s0.1-0.5,0.3-0.7l1.5-1.5c0.3-0.3,0.7-0.4,1-0.2   l0.8,0.3l0.6-0.6c-0.1-1,0.2-2.1,1-2.9l4.2-4.2c1.7-1.7,4-2.7,6.5-2.8l0.4,0c0.4,0,0.8,0.2,0.9,0.6s0.1,0.8-0.2,1.1l-0.5,0.5   c-1.3,1.3-2,3.1-1.7,4.9c0,0.3-0.1,0.6-0.3,0.8l-4.2,4.2c-0.8,0.8-1.8,1.1-2.9,1l-0.6,0.6L9,17c0.1,0.4,0,0.7-0.2,1l-1.5,1.5   C7.1,19.7,6.9,19.8,6.6,19.8z"/></g><path d="M28.8,22.4L17.6,12.1l-3.9,3.9c-0.1,0.1-0.1,0.1-0.2,0.2l10.4,11.3c0.7,0.7,1.5,1.1,2.5,1.1c0,0,0.1,0,0.1,0  c0.9,0,1.8-0.4,2.5-1c0.7-0.7,1-1.6,1-2.6C29.9,24,29.5,23.1,28.8,22.4z"/></svg>